<?xml version="1.0" standalone="no"?>
<!DOCTYPE svg PUBLIC "-//W3C//DTD SVG 1.1//EN" "http://www.w3.org/Graphics/SVG/1.1/DTD/svg11.dtd" >
<svg xmlns="http://www.w3.org/2000/svg" xmlns:xlink="http://www.w3.org/1999/xlink" version="1.1">
<metadata></metadata>
<defs>
<font id="acierdisplay_solid" horiz-adv-x="1044" >
<font-face units-per-em="2048" ascent="1434" descent="-614" />
<missing-glyph horiz-adv-x="522" />
<glyph horiz-adv-x="0" />
<glyph horiz-adv-x="682" />
<glyph unicode=" "  horiz-adv-x="522" />
<glyph unicode="&#x09;" horiz-adv-x="522" />
<glyph unicode="&#xa0;" horiz-adv-x="522" />
<glyph unicode="!" horiz-adv-x="409" d="M49 1208v21h318v-21l-140 -903h-41zM72 104.5q0 55.5 39 94.5t94 39t94 -39t39 -94.5t-39 -94.5t-94 -39t-94 39t-39 94.5z" />
<glyph unicode="&#x22;" horiz-adv-x="737" d="M72 758v471h225v-471h-225zM440 758v471h226v-471h-226z" />
<glyph unicode="#" d="M10 311v205h180l56 197h-164v205h221l86 311h203l-86 -311h180l86 311h203l-86 -311h145v-205h-203l-55 -197h187v-205h-242l-86 -311h-205l86 311h-176l-86 -311h-205l86 311h-125zM395 516h178l56 197h-178z" />
<glyph unicode="$" horiz-adv-x="1153" d="M53 178l174 174q76 -78 217 -112v270l-20 6q-162 35 -252 127t-90 217q0 150 96 255.5t266 137.5v148h252v-139q207 -29 357 -166l-164 -189q-76 59 -193 86v-264q190 -33 281.5 -135t91.5 -238q0 -145 -98.5 -251.5t-274.5 -135.5v-145h-252v145q-244 39 -391 209z M356 889q0 -74 88 -105v203q-88 -29 -88 -98zM696 236q86 27 86 102q0 80 -86 113v-215z" />
<glyph unicode="%" horiz-adv-x="1280" d="M45 856v127q0 111 78 188.5t194.5 77.5t195.5 -77.5t79 -188.5v-127q0 -111 -79 -186.5t-195.5 -75.5t-194.5 75.5t-78 186.5zM182 0l766 1229h150l-764 -1229h-152zM193 860q0 -55 34.5 -91t90 -36t90 36t34.5 91v121q0 55 -34.5 91t-90 36t-90 -36t-34.5 -91v-121z M686 242v127q0 111 78 188.5t194.5 77.5t195.5 -78t79 -188v-127q0 -111 -79 -186.5t-195.5 -75.5t-194.5 75.5t-78 186.5zM834 246q0 -55 34.5 -91t90 -36t90 35.5t34.5 91.5v121q0 55 -34.5 91t-90 36t-90 -36t-34.5 -91v-121z" />
<glyph unicode="&#x26;" horiz-adv-x="1302" d="M98 301q0 180 142 301l82 70l-35 35q-106 106 -107 258q0 129 89 217t235 88q152 0 244 -80t92 -207q0 -129 -150 -278l-24 -25l168 -164l213 227l170 -168l-213 -227l221 -213l-181 -182l-213 209l-32 -33q-96 -96 -172 -133t-176 -37q-170 0 -261.5 98.5t-91.5 243.5z M352 324q0 -50 37 -93q33 -35 78 -34q61 0 123 65l65 74l-172 172l-77 -72q-53 -49 -54 -112zM422 961q0 -37 27 -64l57 -59l59 59q31 31 31 70q0 33 -22.5 56.5t-65.5 23.5q-37 0 -61.5 -27t-24.5 -59z" />
<glyph unicode="'" horiz-adv-x="368" d="M72 758v471h225v-471h-225z" />
<glyph unicode="(" horiz-adv-x="575" d="M133 465v299q0 219 107.5 362.5t263.5 143.5v-176q-184 -53 -185 -334v-291q0 -281 185 -334v-176q-156 0 -263.5 143.5t-107.5 362.5z" />
<glyph unicode=")" horiz-adv-x="575" d="M72 -41v176q184 53 184 334v291q0 281 -184 334v176q156 0 263 -143.5t107 -362.5v-299q0 -219 -107 -362.5t-263 -143.5z" />
<glyph unicode="*" horiz-adv-x="782" d="M63 1020l7 22l231 9l78 219h24l76 -219l234 -9l6 -22l-184 -141l67 -224l-20 -12l-193 133l-188 -133l-23 12l70 224z" />
<glyph unicode="+" d="M123 477v246h276v276h246v-276h279v-246h-279v-278h-246v278h-276z" />
<glyph unicode="," horiz-adv-x="409" d="M53 -236l60 461h229v-22l-262 -439h-27z" />
<glyph unicode="-" horiz-adv-x="696" d="M72 485v246h553v-246h-553z" />
<glyph unicode="." horiz-adv-x="409" d="M72 104.5q0 55.5 39 94.5t94 39t94 -39t39 -94.5t-39 -94.5t-94 -39t-94 39t-39 94.5z" />
<glyph unicode="/" horiz-adv-x="966" d="M20 0l660 1229h266l-657 -1229h-269z" />
<glyph unicode="0" horiz-adv-x="1314" d="M123 485v258q0 221 155.5 374t377 153t379 -152.5t157.5 -374.5v-258q0 -221 -157.5 -373.5t-379 -152.5t-377 152.5t-155.5 373.5zM389 492q0 -113 77 -189t189.5 -76t191.5 77t79 188v245q0 111 -79 187.5t-191.5 76.5t-189.5 -75.5t-77 -188.5v-245z" />
<glyph unicode="1" horiz-adv-x="663" d="M23 944l249 285h226v-1229h-267v961h-4l-112 -117z" />
<glyph unicode="2" horiz-adv-x="1081" d="M12 0v20l367 396q-127 49 -205 162.5t-78 244.5q0 184 130 315.5t317 131.5q184 0 315 -131t131 -316q0 -176 -119 -301l-245 -262v-4h360v-256h-973zM365 823.5q0 -73.5 52 -126t125.5 -52.5t126 52.5t52.5 126t-52.5 125.5t-126 52t-125.5 -52t-52 -125.5z" />
<glyph unicode="3" horiz-adv-x="1032" d="M57 379v24h262v-24q0 -72 47.5 -117t116.5 -45q74 0 121 45t47 117q0 74 -48 120t-120 46h-57v266h53q53 0 84 29.5t31 72.5q0 41 -29.5 70t-70.5 29t-68 -29t-27 -70v-20h-268v20q0 145 107.5 251t255.5 106q168 0 269 -100.5t101 -239.5q0 -63 -32.5 -134t-86.5 -112 v-2q168 -123 168 -315q0 -162 -120.5 -285t-309.5 -123q-178 0 -302 122t-124 298z" />
<glyph unicode="4" horiz-adv-x="1071" d="M6 256v27l516 946h275v-713h180v-260h-180v-256h-267v256h-524zM422 516h108v205z" />
<glyph unicode="5" horiz-adv-x="997" d="M63 199l213 127q66 -111 199 -111q84 0 137.5 51t53.5 135q0 92 -57.5 141.5t-157.5 49.5h-334v637h757v-256h-491v-127h57q215 0 346.5 -115t131.5 -323q0 -188 -128 -317.5t-315 -129.5q-125 0 -237 63.5t-175 174.5z" />
<glyph unicode="6" horiz-adv-x="1056" d="M143 365v499q0 168 119 287t287 119t286.5 -115t118.5 -281v-22h-276v22q0 55 -37 91t-92 36t-95 -39.5t-40 -97.5v-127q59 33 135 33q178 0 291.5 -114.5t113.5 -290.5q0 -168 -118.5 -287t-286.5 -119t-287 119t-119 287zM406 369q0 -57 44 -100.5t99 -43.5t99 43 t44 101q0 55 -44 97t-99 42t-99 -42t-44 -97z" />
<glyph unicode="7" horiz-adv-x="1001" d="M53 973v256h946l-2 -35l-635 -1194h-294l516 973h-531z" />
<glyph unicode="8" horiz-adv-x="1056" d="M141 348v8q0 166 121 281q-100 106 -100 260q0 158 107.5 265.5t261 107.5t261 -109.5t107.5 -267.5q0 -150 -102 -256q123 -117 123 -289q0 -162 -114 -275.5t-275.5 -113.5t-275.5 113.5t-114 275.5zM401 897q0 -53 38 -92t91 -39q51 0 90 39t39 92q0 51 -38.5 90 t-90 39t-90.5 -38t-39 -91zM406 350q0 -53 37.5 -92t91.5 -39q51 0 90 39t39 92q0 51 -39 90t-90.5 39t-90 -39t-38.5 -90z" />
<glyph unicode="9" horiz-adv-x="1056" d="M102 354v23h277v-23q0 -55 37 -91t92 -36t95 40t40 98v127q-59 -33 -135 -33q-186 0 -296 115.5t-110 289.5q0 168 119 287t287 119t286.5 -119t118.5 -287v-499q0 -168 -118.5 -287t-286.5 -119t-287 114.5t-119 280.5zM365 860q0 -55 44 -97t99 -42t99 42t44 97 q0 57 -44 100.5t-99 43.5t-99 -43t-44 -101z" />
<glyph unicode=":" horiz-adv-x="409" d="M70 104.5q0 55.5 38.5 94.5t94 39t94.5 -39t39 -94.5t-39 -94.5t-94.5 -39t-94 39t-38.5 94.5zM70 737.5q0 55.5 38.5 94t94 38.5t94.5 -38.5t39 -94t-39 -94.5t-94.5 -39t-94 39t-38.5 94.5z" />
<glyph unicode=";" horiz-adv-x="409" d="M53 -236l60 461h229v-22l-262 -439h-27zM70 737.5q0 55.5 38.5 94t94 38.5t94.5 -38.5t39 -94t-39 -94.5t-94.5 -39t-94 39t-38.5 94.5z" />
<glyph unicode="&#x3c;" d="M123 477v246l801 332v-267l-521 -188l521 -188v-267z" />
<glyph unicode="=" d="M123 281v245h801v-245h-801zM123 670v245h801v-245h-801z" />
<glyph unicode="&#x3e;" d="M123 145v267l520 188l-520 188v267l801 -332v-246z" />
<glyph unicode="?" horiz-adv-x="966" d="M82 858v23q0 162 115.5 275.5t279.5 113.5q178 0 289 -111.5t111 -263.5q0 -127 -67 -223.5t-206 -128.5v-244h-262v483q68 -31 127 -30q63 0 102 35.5t39 93.5q0 55 -37.5 93t-95.5 38q-55 0 -92 -37t-37 -94v-23h-266zM342 104.5q0 55.5 39 94.5t94 39t94 -39t39 -94.5 t-39 -94.5t-94 -39t-94 39t-39 94.5z" />
<glyph unicode="@" horiz-adv-x="1626" d="M57 575q0 305 203 511t561 206q328 0 538 -206.5t210 -530.5q0 -162 -82 -271.5t-230 -109.5q-190 0 -276 203h-336l-53 -135h-205l346 807h154l237 -570q55 -131 144 -131q66 0 95.5 46t29.5 167q0 246 -153 412t-427 166q-266 0 -423 -146.5t-157 -423.5 q0 -248 148.5 -367.5t417.5 -119.5q51 0 75 2v-160q-25 -2 -75 -2q-360 0 -551 165t-191 488zM700 512h224l-109 303h-6z" />
<glyph unicode="A" horiz-adv-x="1226" d="M31 0l565 1270h35l565 -1270h-287l-57 129h-479l-56 -129h-286zM469 354h285l-140 328h-4z" />
<glyph unicode="B" horiz-adv-x="952" d="M72 0v1229h463q143 0 242.5 -99.5t99.5 -242.5q0 -170 -134 -252v-4q178 -117 179 -309q0 -133 -93.5 -227.5t-248.5 -94.5h-508zM338 254h184q53 0 85 31.5t32 85.5q0 49 -32 80.5t-85 31.5h-184v-229zM338 737h145q55 0 89 32t34 87q0 51 -33.5 86t-89.5 35h-145v-240z " />
<glyph unicode="C" horiz-adv-x="1224" d="M61 608q0 297 206 479.5t464 182.5q281 0 473 -219l-174 -174q-131 135 -299 135q-164 0 -278.5 -113t-114.5 -276q0 -172 106.5 -289t286.5 -117q168 0 299 135l174 -174q-193 -219 -473 -219q-293 0 -481.5 179t-188.5 470z" />
<glyph unicode="D" horiz-adv-x="1150" d="M72 0v1229h397q256 0 438.5 -178.5t182.5 -436.5q0 -252 -175.5 -433t-445.5 -181h-397zM338 262h125q147 0 248.5 98.5t101.5 253.5q0 150 -98.5 251.5t-251.5 101.5h-125v-705z" />
<glyph unicode="E" horiz-adv-x="880" d="M72 0v1229h757v-256h-491v-236h453v-256h-453v-225h512v-256h-778z" />
<glyph unicode="F" horiz-adv-x="829" d="M72 0v1229h737v-256h-471v-277h432v-256h-432v-440h-266z" />
<glyph unicode="G" horiz-adv-x="1433" d="M68 614q0 297 202.5 476.5t460.5 179.5q276 0 463 -211l-174 -174q-123 127 -289 127q-164 0 -277.5 -114t-113.5 -277q0 -162 111.5 -278t269.5 -116q295 0 350 250h-364v256h653v-123q0 -285 -167 -468t-472 -183q-272 0 -462.5 191.5t-190.5 463.5z" />
<glyph unicode="H" horiz-adv-x="1155" d="M72 0v1229h266v-492h479v492h266v-1229h-266v502h-479v-502h-266z" />
<glyph unicode="I" horiz-adv-x="409" d="M72 0v1229h266v-1229h-266z" />
<glyph unicode="J" horiz-adv-x="942" d="M31 354l268 11q12 -141 143 -142q78 0 120 45t42 156v805h266v-858q0 -186 -119.5 -299t-293.5 -113q-184 0 -305 106.5t-121 288.5z" />
<glyph unicode="K" horiz-adv-x="1032" d="M72 0v1229h266v-565h4l365 565h294l-395 -584l416 -645h-293l-387 614h-4v-614h-266z" />
<glyph unicode="L" horiz-adv-x="880" d="M72 0v1229h266v-973h512v-256h-778z" />
<glyph unicode="M" horiz-adv-x="1253" d="M72 0v1229h270l287 -680l286 680h267v-1229h-267v600l-272 -641h-31l-274 649v-608h-266z" />
<glyph unicode="N" horiz-adv-x="1167" d="M72 0v1229h266l487 -742h4v742h267v-1229h-267l-487 741h-4v-741h-266z" />
<glyph unicode="O" horiz-adv-x="1433" d="M61 614.5q0 272.5 191.5 464t464 191.5t464 -191.5t191.5 -464t-191.5 -464t-464 -191.5t-464 191.5t-191.5 464zM330 614.5q0 -159.5 113.5 -273.5t273.5 -114t273.5 114t113.5 273.5t-113.5 273t-273.5 113.5t-273.5 -113.5t-113.5 -273z" />
<glyph unicode="P" horiz-adv-x="985" d="M72 0v1229h469q170 0 276.5 -111.5t106.5 -271.5q0 -168 -111 -275.5t-272 -107.5h-203v-463h-266zM338 723h188q55 0 89 31.5t34 87.5q0 49 -37 84t-86 35h-188v-238z" />
<glyph unicode="Q" horiz-adv-x="1433" d="M61 614.5q0 272.5 191.5 464t464 191.5t464 -191.5t191.5 -464.5q0 -264 -182 -452l192 -182h-340l-43 43q-133 -63 -282 -64q-272 0 -464 191.5t-192 464zM330 614.5q0 -159.5 113.5 -273.5t273.5 -114q33 0 67 6l-262 259h324l149 -146q109 113 109 268 q0 160 -113.5 273.5t-273.5 113.5t-273.5 -113.5t-113.5 -273z" />
<glyph unicode="R" horiz-adv-x="1001" d="M72 0v1229h481q174 0 289.5 -108.5t115.5 -278.5q0 -131 -77.5 -231.5t-210.5 -137.5v-4l317 -469h-315l-330 504h-4v-504h-266zM338 723h235q55 0 89 31.5t34 87.5q0 49 -36.5 84t-86.5 35h-235v-238z" />
<glyph unicode="S" horiz-adv-x="911" d="M66 348h260q0 -53 40 -91t93 -38q51 0 88 33t37 82q0 23 -6.5 42t-22.5 34.5t-28.5 27t-40 22.5t-42 16t-48.5 15.5t-44 14.5q-152 51 -219 141t-67 230q0 162 113.5 277.5t275 115.5t275.5 -114t114 -275h-260q0 53 -38 91t-91.5 38t-88 -34t-34.5 -89q0 -45 32.5 -78 t69.5 -47t103 -35q154 -45 230.5 -135t76.5 -240q0 -162 -114 -277.5t-275.5 -115.5t-275 113.5t-113.5 275.5z" />
<glyph unicode="T" horiz-adv-x="860" d="M31 973v256h798v-256h-266v-973h-266v973h-266z" />
<glyph unicode="U" horiz-adv-x="1046" d="M72 410v819h266v-772q0 -233 184 -234q186 0 187 234v772h266v-819q0 -209 -129 -330t-324 -121q-201 0 -325.5 122t-124.5 329z" />
<glyph unicode="V" horiz-adv-x="1083" d="M20 1229h277l242 -608h4l243 608h277l-510 -1270h-23z" />
<glyph unicode="W" horiz-adv-x="1662" d="M20 1229h277l242 -608h4l153 417l-71 191h276l238 -608h4l223 608h276l-483 -1270h-22l-299 739l-285 -739h-23z" />
<glyph unicode="X" horiz-adv-x="1171" d="M35 0l391 639l-371 590h310l229 -367l213 367h309l-366 -615l387 -614h-308l-247 385l-240 -385h-307z" />
<glyph unicode="Y" horiz-adv-x="1148" d="M31 1229h293l229 -348l262 348h303l-420 -561v-668h-266v616z" />
<glyph unicode="Z" horiz-adv-x="1056" d="M35 0v20l540 938v5h-475v266h901v-21l-561 -938v-4h541v-266h-946z" />
<glyph unicode="[" horiz-adv-x="575" d="M133 -41v1311h371v-176h-185v-959h185v-176h-371z" />
<glyph unicode="\" horiz-adv-x="966" d="M20 1229h267l659 -1229h-268z" />
<glyph unicode="]" horiz-adv-x="575" d="M72 -41v176h184v959h-184v176h370v-1311h-370z" />
<glyph unicode="^" d="M72 225l327 752h246l328 -752h-266l-185 471l-184 -471h-266z" />
<glyph unicode="_" d="M72 -84h901v-195h-901v195z" />
<glyph unicode="`" d="M379 1415h223l62 -162h-162z" />
<glyph unicode="a" horiz-adv-x="1226" d="M31 0l565 1270h35l565 -1270h-287l-57 129h-479l-56 -129h-286zM469 354h285l-140 328h-4z" />
<glyph unicode="b" horiz-adv-x="952" d="M72 0v1229h463q143 0 242.5 -99.5t99.5 -242.5q0 -170 -134 -252v-4q178 -117 179 -309q0 -133 -93.5 -227.5t-248.5 -94.5h-508zM338 254h184q53 0 85 31.5t32 85.5q0 49 -32 80.5t-85 31.5h-184v-229zM338 737h145q55 0 89 32t34 87q0 51 -33.5 86t-89.5 35h-145v-240z " />
<glyph unicode="c" horiz-adv-x="1224" d="M61 608q0 297 206 479.5t464 182.5q281 0 473 -219l-174 -174q-131 135 -299 135q-164 0 -278.5 -113t-114.5 -276q0 -172 106.5 -289t286.5 -117q168 0 299 135l174 -174q-193 -219 -473 -219q-293 0 -481.5 179t-188.5 470z" />
<glyph unicode="d" horiz-adv-x="1150" d="M72 0v1229h397q256 0 438.5 -178.5t182.5 -436.5q0 -252 -175.5 -433t-445.5 -181h-397zM338 262h125q147 0 248.5 98.5t101.5 253.5q0 150 -98.5 251.5t-251.5 101.5h-125v-705z" />
<glyph unicode="e" horiz-adv-x="880" d="M72 0v1229h757v-256h-491v-236h453v-256h-453v-225h512v-256h-778z" />
<glyph unicode="f" horiz-adv-x="829" d="M72 0v1229h737v-256h-471v-277h432v-256h-432v-440h-266z" />
<glyph unicode="g" horiz-adv-x="1433" d="M68 614q0 297 202.5 476.5t460.5 179.5q276 0 463 -211l-174 -174q-123 127 -289 127q-164 0 -277.5 -114t-113.5 -277q0 -162 111.5 -278t269.5 -116q295 0 350 250h-364v256h653v-123q0 -285 -167 -468t-472 -183q-272 0 -462.5 191.5t-190.5 463.5z" />
<glyph unicode="h" horiz-adv-x="1155" d="M72 0v1229h266v-492h479v492h266v-1229h-266v502h-479v-502h-266z" />
<glyph unicode="i" horiz-adv-x="409" d="M72 0v1229h266v-1229h-266z" />
<glyph unicode="j" horiz-adv-x="942" d="M31 354l268 11q12 -141 143 -142q78 0 120 45t42 156v805h266v-858q0 -186 -119.5 -299t-293.5 -113q-184 0 -305 106.5t-121 288.5z" />
<glyph unicode="k" horiz-adv-x="1032" d="M72 0v1229h266v-565h4l365 565h294l-395 -584l416 -645h-293l-387 614h-4v-614h-266z" />
<glyph unicode="l" horiz-adv-x="880" d="M72 0v1229h266v-973h512v-256h-778z" />
<glyph unicode="m" horiz-adv-x="1253" d="M72 0v1229h270l287 -680l286 680h267v-1229h-267v600l-272 -641h-31l-274 649v-608h-266z" />
<glyph unicode="n" horiz-adv-x="1167" d="M72 0v1229h266l487 -742h4v742h267v-1229h-267l-487 741h-4v-741h-266z" />
<glyph unicode="o" horiz-adv-x="1433" d="M61 614.5q0 272.5 191.5 464t464 191.5t464 -191.5t191.5 -464t-191.5 -464t-464 -191.5t-464 191.5t-191.5 464zM330 614.5q0 -159.5 113.5 -273.5t273.5 -114t273.5 114t113.5 273.5t-113.5 273t-273.5 113.5t-273.5 -113.5t-113.5 -273z" />
<glyph unicode="p" horiz-adv-x="985" d="M72 0v1229h469q170 0 276.5 -111.5t106.5 -271.5q0 -168 -111 -275.5t-272 -107.5h-203v-463h-266zM338 723h188q55 0 89 31.5t34 87.5q0 49 -37 84t-86 35h-188v-238z" />
<glyph unicode="q" horiz-adv-x="1433" d="M61 614.5q0 272.5 191.5 464t464 191.5t464 -191.5t191.5 -464.5q0 -264 -182 -452l192 -182h-340l-43 43q-133 -63 -282 -64q-272 0 -464 191.5t-192 464zM330 614.5q0 -159.5 113.5 -273.5t273.5 -114q33 0 67 6l-262 259h324l149 -146q109 113 109 268 q0 160 -113.5 273.5t-273.5 113.5t-273.5 -113.5t-113.5 -273z" />
<glyph unicode="r" horiz-adv-x="1001" d="M72 0v1229h481q174 0 289.5 -108.5t115.5 -278.5q0 -131 -77.5 -231.5t-210.5 -137.5v-4l317 -469h-315l-330 504h-4v-504h-266zM338 723h235q55 0 89 31.5t34 87.5q0 49 -36.5 84t-86.5 35h-235v-238z" />
<glyph unicode="s" horiz-adv-x="911" d="M66 348h260q0 -53 40 -91t93 -38q51 0 88 33t37 82q0 23 -6.5 42t-22.5 34.5t-28.5 27t-40 22.5t-42 16t-48.5 15.5t-44 14.5q-152 51 -219 141t-67 230q0 162 113.5 277.5t275 115.5t275.5 -114t114 -275h-260q0 53 -38 91t-91.5 38t-88 -34t-34.5 -89q0 -45 32.5 -78 t69.5 -47t103 -35q154 -45 230.5 -135t76.5 -240q0 -162 -114 -277.5t-275.5 -115.5t-275 113.5t-113.5 275.5z" />
<glyph unicode="t" horiz-adv-x="860" d="M31 973v256h798v-256h-266v-973h-266v973h-266z" />
<glyph unicode="u" horiz-adv-x="1046" d="M72 410v819h266v-772q0 -233 184 -234q186 0 187 234v772h266v-819q0 -209 -129 -330t-324 -121q-201 0 -325.5 122t-124.5 329z" />
<glyph unicode="v" horiz-adv-x="1083" d="M20 1229h277l242 -608h4l243 608h277l-510 -1270h-23z" />
<glyph unicode="w" horiz-adv-x="1662" d="M20 1229h277l242 -608h4l153 417l-71 191h276l238 -608h4l223 608h276l-483 -1270h-22l-299 739l-285 -739h-23z" />
<glyph unicode="x" horiz-adv-x="1171" d="M35 0l391 639l-371 590h310l229 -367l213 367h309l-366 -615l387 -614h-308l-247 385l-240 -385h-307z" />
<glyph unicode="y" horiz-adv-x="1148" d="M31 1229h293l229 -348l262 348h303l-420 -561v-668h-266v616z" />
<glyph unicode="z" horiz-adv-x="1056" d="M35 0v20l540 938v5h-475v266h901v-21l-561 -938v-4h541v-266h-946z" />
<glyph unicode="{" horiz-adv-x="575" d="M29 524v176h30q74 0 74 64v270q0 121 61.5 178.5t198.5 57.5h111v-176h-111q-74 0 -74 -64v-270q0 -115 -79 -146v-2q80 -27 79 -147v-266q0 -63 74 -64h111v-176h-111q-137 0 -198.5 57.5t-61.5 178.5v266q0 63 -74 63h-30z" />
<glyph unicode="|" horiz-adv-x="399" d="M72 -266v1724h256v-1724h-256z" />
<glyph unicode="}" horiz-adv-x="575" d="M72 -41v176h110q74 0 74 64v266q0 121 80 147v2q-80 31 -80 146v270q0 63 -74 64h-110v176h110q137 0 198.5 -57.5t61.5 -178.5v-270q0 -63 74 -64h31v-176h-31q-74 0 -74 -63v-266q0 -121 -61.5 -178.5t-198.5 -57.5h-110z" />
<glyph unicode="~" d="M25 360v189q0 143 82.5 230t214.5 87q74 0 137 -44t99 -97t80 -97t85 -44q29 0 45 20.5t16 52.5v195h230v-193q0 -145 -74 -231t-217 -86q-68 0 -128 34t-90 66.5t-69 85.5q-25 37 -38 52.5t-33.5 29t-42.5 13.5q-33 0 -51.5 -22.5t-18.5 -51.5v-189h-227z" />
<glyph unicode="&#xa1;" horiz-adv-x="409" d="M49 0v20l137 904h41l140 -904v-20h-318zM72 1124.5q0 55.5 39 94t94 38.5t94 -38.5t39 -94t-39 -94.5t-94 -39t-94 39t-39 94.5z" />
<glyph unicode="&#xa2;" horiz-adv-x="1009" d="M61 459q0 182 103.5 309t263.5 174v156h252v-144q166 -29 295 -161l-152 -140q-68 66 -143 88v-559q76 27 143 90l152 -141q-125 -131 -295 -162v-145h-252v153q-170 41 -268.5 169t-98.5 313zM297 469q0 -186 131 -262v508q-131 -82 -131 -246z" />
<glyph unicode="&#xa3;" horiz-adv-x="1064" d="M23 502v205h124v102q0 193 135.5 327t327.5 134q150 0 267.5 -85t162.5 -220l-217 -86q-31 59 -87 95t-126 36q-84 0 -140 -56.5t-56 -140.5v-106h424v-205h-424v-246h594v-256h-861v502h-124z" />
<glyph unicode="&#xa4;" d="M113 354l96 95q-33 72 -33 149.5t33 149.5l-96 100l161 162l97 -101q74 35 151.5 35t147.5 -35l100 101l162 -162l-98 -98q35 -74 34.5 -152t-34.5 -152l96 -92l-162 -161l-96 92q-72 -33 -150 -33q-82 0 -151 35l-97 -94zM387 598q0 -55 40 -95t95.5 -40t95 40t39.5 95 t-39.5 95t-95 40t-95.5 -40t-40 -95z" />
<glyph unicode="&#xa5;" horiz-adv-x="1148" d="M31 1229h311l219 -316l254 316h303l-420 -522h285v-205h-285v-86h285v-205h-285v-211h-266v211h-264v205h264v86h-264v205h264z" />
<glyph unicode="&#xa6;" horiz-adv-x="399" d="M72 -266v743h256v-743h-256zM72 707v751h256v-751h-256z" />
<glyph unicode="&#xa7;" horiz-adv-x="911" d="M53 532q0 129 99 232q-35 63 -35 151q0 147 100 248t244 101q147 0 246.5 -85t99.5 -264h-229q-16 115 -121 115q-45 0 -74 -26.5t-29 -75.5q0 -37 29 -63.5t59.5 -38t89.5 -27.5q328 -86 328 -332q0 -129 -106 -231q31 -66 30 -150q0 -147 -100 -247.5t-246 -100.5 q-162 0 -253 99t-91 261h238q0 -55 28.5 -93t88.5 -38q43 0 73.5 30t30.5 79q0 86 -125 125l-156 47q-121 35 -170 104.5t-49 179.5zM287 559q-1 -63 67 -88l236 -82q20 31 20 55q0 78 -106 115l-201 70q-16 -31 -16 -70z" />
<glyph unicode="&#xa8;" d="M309 1378q0 39 26.5 64.5t63.5 25.5q39 0 66 -25.5t27 -64.5t-27 -65.5t-66 -26.5q-37 0 -63.5 26.5t-26.5 65.5zM553 1378q0 39 26.5 64.5t63.5 25.5q39 0 65.5 -25.5t26.5 -64.5t-26.5 -65.5t-65.5 -26.5q-37 0 -63.5 26.5t-26.5 65.5z" />
<glyph unicode="&#xa9;" horiz-adv-x="1062" d="M61 798.5q0 194.5 138.5 333t333 138.5t331.5 -138.5t137 -332.5q0 -193 -138 -331t-331 -138q-195 0 -333 137t-138 331.5zM162 799q0 -152 108 -260.5t262 -108.5q152 0 260.5 108.5t108.5 260.5q0 154 -108.5 262t-260.5 108q-154 0 -262 -108.5t-108 -261.5zM274 795 q0 119 83 190.5t190 71.5q123 0 209 -92l-86 -80q-66 57 -123 57q-61 0 -99 -40t-38 -101q0 -66 34.5 -107t102.5 -41q57 0 123 56l86 -80q-88 -92 -209 -92t-197 71.5t-76 186.5z" />
<glyph unicode="&#xaa;" horiz-adv-x="831" d="M61 524l330 705h47l332 -705h-201l-30 68h-248l-27 -68h-203zM111 336v129h600v-129h-600zM350 727h123l-57 168h-8z" />
<glyph unicode="&#xab;" horiz-adv-x="919" d="M68 606v19l370 372l25 -18l-139 -365l139 -370l-25 -11zM432 606v19l371 372l24 -18l-139 -365l139 -370l-24 -11z" />
<glyph unicode="&#xac;" d="M123 475v248h801v-451h-246v203h-555z" />
<glyph unicode="&#xad;" horiz-adv-x="696" d="M72 485v246h553v-246h-553z" />
<glyph unicode="&#xae;" horiz-adv-x="1062" d="M61 798.5q0 194.5 138.5 333t333 138.5t331.5 -138.5t137 -332.5q0 -193 -138 -331t-331 -138q-195 0 -333 137t-138 331.5zM162 799q0 -152 108 -260.5t262 -108.5q152 0 260.5 108.5t108.5 260.5q0 154 -108.5 262t-260.5 108q-154 0 -262 -108.5t-108 -261.5zM362 553 v489h207q76 0 126 -47t50 -116q0 -104 -112 -140l133 -186h-156l-114 174v-174h-134zM496 840h82q16 0 27 11t11 28q0 14 -12 28.5t-26 14.5h-82v-82z" />
<glyph unicode="&#xaf;" d="M307 1298v152h430v-152h-430z" />
<glyph unicode="&#xb0;" horiz-adv-x="671" d="M41 862v78q0 121 86 205t209 84t209 -84t86 -205v-78q0 -121 -86 -205t-209 -84t-209 84t-86 205zM211 879q0 -53 36 -88t89 -35q51 0 88 34.5t37 88.5v45q0 53 -37 88t-88 35q-53 0 -89 -35t-36 -88v-45z" />
<glyph unicode="&#xb1;" d="M123 88v246h801v-246h-801zM123 563v246h276v190h246v-190h279v-246h-279v-180h-246v180h-276z" />
<glyph unicode="&#xb2;" horiz-adv-x="589" d="M18 717v16l179 191q-66 25 -105 81t-39 121q0 92 70 159t168 67t166.5 -66.5t68.5 -159.5q0 -90 -61 -151l-121 -125h182v-133h-508zM203 1126.5q0 -34.5 25.5 -59.5t62.5 -25t61.5 25t24.5 59.5t-24.5 58t-61.5 23.5t-62.5 -23.5t-25.5 -58z" />
<glyph unicode="&#xb3;" horiz-adv-x="565" d="M33 907v17h145v-17q0 -33 24.5 -54.5t57.5 -21.5q35 0 58.5 21.5t23.5 54.5q0 66 -82 66h-35v139h33q25 0 39 18.5t14 38.5q0 18 -13 31.5t-34 13.5q-18 0 -30.5 -13t-12.5 -32v-14h-149v14q0 74 57 128.5t135 54.5q90 0 144.5 -52.5t54.5 -122t-57 -120.5 q84 -61 83 -156q0 -82 -64.5 -143.5t-164.5 -61.5q-96 0 -161.5 61.5t-65.5 149.5z" />
<glyph unicode="&#xb4;" d="M381 1253l61 162h224l-123 -162h-162z" />
<glyph unicode="&#xb5;" horiz-adv-x="1083" d="M72 -385v1389h266v-768q80 -14 131 -15q184 0 184 168v615h267v-629q0 -92 31.5 -129t101.5 -37v-264q-145 0 -265 114q-117 -100 -280 -100q-80 1 -170 21v-365h-266z" />
<glyph unicode="&#xb6;" horiz-adv-x="968" d="M61 780q0 186 124 317.5t325 131.5h387v-1467h-266v570h-121q-190 0 -319.5 125t-129.5 323z" />
<glyph unicode="&#xb7;" horiz-adv-x="409" d="M72 610.5q0 55.5 39 94t94 38.5t94 -38.5t39 -94t-39 -94.5t-94 -39t-94 39t-39 94.5z" />
<glyph unicode="&#xb8;" horiz-adv-x="522" d="M160 -68q37 29 78 29q53 0 88.5 -36t35.5 -89t-37.5 -89t-93.5 -36q-33 0 -65 19l27 47q25 -12 40 -13q33 0 54.5 19.5t21.5 52.5q0 72 -69 72q-29 0 -50 -17z" />
<glyph unicode="&#xb9;" horiz-adv-x="376" d="M2 1178l143 153h125v-614h-151v436l-53 -57z" />
<glyph unicode="&#xba;" horiz-adv-x="671" d="M41 797v143q0 121 86 205t209 84t209 -84t86 -205v-143q0 -121 -86 -205t-209 -84t-209 84t-86 205zM55 336v129h559v-129h-559zM211 813q0 -53 36 -88t89 -35q51 0 88 35t37 88v111q0 53 -37 88t-88 35q-53 0 -89 -35t-36 -88v-111z" />
<glyph unicode="&#xbb;" horiz-adv-x="919" d="M92 244l139 370l-139 365l25 18l370 -372v-19l-370 -373zM457 244l139 370l-139 365l24 18l371 -372v-19l-371 -373z" />
<glyph unicode="&#xbc;" horiz-adv-x="1056" d="M2 1075l143 154h125v-615h-151v437l-53 -58zM14 0l766 1229h150l-764 -1229h-152zM489 125v18l291 471h150v-362h104v-127h-104v-125h-148v125h-293zM705 252h77v131z" />
<glyph unicode="&#xbd;" horiz-adv-x="1116" d="M2 1075l143 154h125v-615h-151v437l-53 -58zM14 0l766 1229h150l-764 -1229h-152zM575 0v16l179 191q-66 25 -105 81t-39 122q0 92 70 158.5t168 66.5t166.5 -66.5t68.5 -158.5q0 -90 -61 -152l-121 -125h182v-133h-508zM760 409.5q0 -34.5 25.5 -59t62.5 -24.5 t61.5 24.5t24.5 59t-24.5 58.5t-61.5 24t-62.5 -24t-25.5 -58.5z" />
<glyph unicode="&#xbe;" horiz-adv-x="1208" d="M18 805v16h146v-16q0 -33 24.5 -54.5t57.5 -21.5q35 0 58.5 21.5t23.5 54.5q0 66 -82 65h-35v140h33q25 0 39 18.5t14 38.5q0 18 -13.5 31.5t-33.5 13.5q-18 0 -30.5 -13.5t-12.5 -31.5v-14h-150v14q0 74 57.5 128t135.5 54q90 0 144.5 -52t54.5 -121.5t-58 -121.5 q84 -61 84 -155q0 -82 -64.5 -143.5t-164.5 -61.5q-96 0 -162 61.5t-66 149.5zM166 0l766 1229h149l-764 -1229h-151zM641 125v18l291 471h149v-362h105v-127h-105v-125h-147v125h-293zM856 252h78v131z" />
<glyph unicode="&#xbf;" horiz-adv-x="966" d="M90 346q0 127 66.5 223.5t205.5 128.5v244h263v-483q-68 31 -127 30q-63 0 -102.5 -35.5t-39.5 -93.5q0 -55 38 -93t95 -38q55 0 92 37t37 94v23h267v-23q0 -162 -116 -275.5t-280 -113.5q-178 0 -288.5 111.5t-110.5 263.5zM358 1136.5q0 55.5 39 94.5t94.5 39t94.5 -39 t39 -94.5t-39 -94t-94.5 -38.5t-94.5 38.5t-39 94z" />
<glyph unicode="&#xc0;" horiz-adv-x="1226" d="M31 0l565 1270h35l565 -1270h-287l-57 129h-479l-56 -129h-286zM383 1477h223l62 -162h-162zM469 354h285l-140 328h-4z" />
<glyph unicode="&#xc1;" horiz-adv-x="1226" d="M31 0l565 1270h35l565 -1270h-287l-57 129h-479l-56 -129h-286zM469 354h285l-140 328h-4zM569 1315l62 162h223l-123 -162h-162z" />
<glyph unicode="&#xc2;" horiz-adv-x="1226" d="M31 0l565 1270h35l565 -1270h-287l-57 129h-479l-56 -129h-286zM379 1296l225 224h19l225 -224l-19 -24l-217 78l-223 -78zM469 354h285l-140 328h-4z" />
<glyph unicode="&#xc3;" horiz-adv-x="1226" d="M31 0l565 1270h35l565 -1270h-287l-57 129h-479l-56 -129h-286zM391 1278q0 162 146 162h127q20 0 20 35h158q0 -168 -146 -168h-127q-20 0 -20 -29h-158zM469 354h285l-140 328h-4z" />
<glyph unicode="&#xc4;" horiz-adv-x="1226" d="M31 0l565 1270h35l565 -1270h-287l-57 129h-479l-56 -129h-286zM401 1378q0 39 27 64.5t64 25.5q39 0 65.5 -25.5t26.5 -64.5t-26.5 -65.5t-65.5 -26.5q-37 0 -64 26.5t-27 65.5zM469 354h285l-140 328h-4zM645 1378q0 39 26.5 64.5t63.5 25.5q39 0 65.5 -25.5 t26.5 -64.5t-26.5 -65.5t-65.5 -26.5q-37 0 -63.5 26.5t-26.5 65.5z" />
<glyph unicode="&#xc5;" horiz-adv-x="1226" d="M31 0l557 1251q-43 8 -72 43t-29 80q0 51 37 88t88.5 37t88 -37t36.5 -88q0 -45 -27.5 -78.5t-70.5 -44.5l557 -1251h-287l-57 129h-479l-56 -129h-286zM469 354h285l-140 328h-4zM545 1374.5q0 -67.5 67.5 -67.5t67.5 67.5t-67.5 67.5t-67.5 -67.5z" />
<glyph unicode="&#xc6;" horiz-adv-x="1673" d="M10 0l813 1229h799v-256h-492v-236h453v-256h-453v-225h512v-256h-778v254h-389l-158 -254h-307zM614 479h250v400z" />
<glyph unicode="&#xc7;" horiz-adv-x="1224" d="M61 608q0 297 206 479.5t464 182.5q281 0 473 -219l-174 -174q-131 135 -299 135q-164 0 -278.5 -113t-114.5 -276q0 -172 106.5 -289t286.5 -117q168 0 299 135l174 -174q-193 -219 -473 -219q-293 0 -481.5 179t-188.5 470zM639 -72q37 29 78 29q53 0 89 -36t36 -89 t-38 -89t-93 -36q-33 0 -66 19l27 47q25 -12 41 -13q33 0 54 19.5t21 52.5q0 72 -69 72q-29 0 -49 -17z" />
<glyph unicode="&#xc8;" horiz-adv-x="880" d="M72 0v1229h757v-256h-491v-236h453v-256h-453v-225h512v-256h-778zM252 1415h223l62 -162h-162z" />
<glyph unicode="&#xc9;" horiz-adv-x="880" d="M72 0v1229h757v-256h-491v-236h453v-256h-453v-225h512v-256h-778zM344 1253l62 162h223l-123 -162h-162z" />
<glyph unicode="&#xca;" horiz-adv-x="880" d="M72 0v1229h757v-256h-491v-236h453v-256h-453v-225h512v-256h-778zM231 1278l226 223h18l225 -223l-18 -25l-217 78l-223 -78z" />
<glyph unicode="&#xcb;" horiz-adv-x="880" d="M72 0v1229h757v-256h-491v-236h453v-256h-453v-225h512v-256h-778zM254 1378q0 39 26.5 64.5t63.5 25.5q39 0 65.5 -25.5t26.5 -64.5t-26.5 -65.5t-65.5 -26.5q-37 0 -63.5 26.5t-26.5 65.5zM498 1378q0 39 26.5 64.5t63.5 25.5q39 0 65.5 -25.5t26.5 -64.5t-26.5 -65.5 t-65.5 -26.5q-37 0 -63.5 26.5t-26.5 65.5z" />
<glyph unicode="&#xcc;" horiz-adv-x="409" d="M4 1415h223l62 -162h-162zM72 0v1229h266v-1229h-266z" />
<glyph unicode="&#xcd;" horiz-adv-x="409" d="M72 0v1229h266v-1229h-266zM123 1253l61 162h224l-123 -162h-162z" />
<glyph unicode="&#xce;" horiz-adv-x="409" d="M-29 1278l226 223h18l225 -223l-18 -25l-217 78l-223 -78zM72 0v1229h266v-1229h-266z" />
<glyph unicode="&#xcf;" horiz-adv-x="409" d="M-8 1378q0 39 26.5 64.5t63.5 25.5q39 0 65.5 -25.5t26.5 -64.5t-26.5 -65.5t-65.5 -26.5q-37 0 -63.5 26.5t-26.5 65.5zM72 0v1229h266v-1229h-266zM236 1378q0 39 26.5 64.5t63.5 25.5q39 0 65.5 -25.5t26.5 -64.5t-26.5 -65.5t-65.5 -26.5q-37 0 -63.5 26.5 t-26.5 65.5z" />
<glyph unicode="&#xd0;" horiz-adv-x="1150" d="M6 485v246h66v498h397q256 0 438.5 -178.5t182.5 -436.5q0 -252 -175.5 -433t-445.5 -181h-397v485h-66zM338 262h125q147 0 248.5 98.5t101.5 253.5q0 150 -98.5 251.5t-251.5 101.5h-125v-236h237v-246h-237v-223z" />
<glyph unicode="&#xd1;" horiz-adv-x="1167" d="M72 0v1229h266l487 -742h4v742h267v-1229h-267l-487 741h-4v-741h-266zM393 1278q0 162 146 162h127q20 0 20 35h158q0 -168 -146 -168h-127q-20 0 -20 -29h-158z" />
<glyph unicode="&#xd2;" horiz-adv-x="1433" d="M61 614.5q0 272.5 191.5 464t464 191.5t464 -191.5t191.5 -464t-191.5 -464t-464 -191.5t-464 191.5t-191.5 464zM330 614.5q0 -159.5 113.5 -273.5t273.5 -114t273.5 114t113.5 273.5t-113.5 273t-273.5 113.5t-273.5 -113.5t-113.5 -273zM512 1477h223l62 -162h-162z " />
<glyph unicode="&#xd3;" horiz-adv-x="1433" d="M61 614.5q0 272.5 191.5 464t464 191.5t464 -191.5t191.5 -464t-191.5 -464t-464 -191.5t-464 191.5t-191.5 464zM330 614.5q0 -159.5 113.5 -273.5t273.5 -114t273.5 114t113.5 273.5t-113.5 273t-273.5 113.5t-273.5 -113.5t-113.5 -273zM645 1315l62 162h223 l-123 -162h-162z" />
<glyph unicode="&#xd4;" horiz-adv-x="1433" d="M61 614.5q0 272.5 191.5 464t464 191.5t464 -191.5t191.5 -464t-191.5 -464t-464 -191.5t-464 191.5t-191.5 464zM330 614.5q0 -159.5 113.5 -273.5t273.5 -114t273.5 114t113.5 273.5t-113.5 273t-273.5 113.5t-273.5 -113.5t-113.5 -273zM477 1319l225 223h19l225 -223 l-18 -25l-217 78l-224 -78z" />
<glyph unicode="&#xd5;" horiz-adv-x="1433" d="M61 614.5q0 272.5 191.5 464t464 191.5t464 -191.5t191.5 -464t-191.5 -464t-464 -191.5t-464 191.5t-191.5 464zM330 614.5q0 -159.5 113.5 -273.5t273.5 -114t273.5 114t113.5 273.5t-113.5 273t-273.5 113.5t-273.5 -113.5t-113.5 -273zM469 1298q0 162 145 162h127 q20 0 21 35h158q0 -168 -146 -168h-127q-20 0 -20 -29h-158z" />
<glyph unicode="&#xd6;" horiz-adv-x="1433" d="M61 614.5q0 272.5 191.5 464t464 191.5t464 -191.5t191.5 -464t-191.5 -464t-464 -191.5t-464 191.5t-191.5 464zM330 614.5q0 -159.5 113.5 -273.5t273.5 -114t273.5 114t113.5 273.5t-113.5 273t-273.5 113.5t-273.5 -113.5t-113.5 -273zM504 1440q0 39 26.5 64.5 t63.5 25.5q39 0 65.5 -25.5t26.5 -64.5t-26.5 -65.5t-65.5 -26.5q-37 0 -63.5 26.5t-26.5 65.5zM748 1440q0 39 26.5 64.5t63.5 25.5q39 0 65.5 -25.5t26.5 -64.5t-26.5 -65.5t-65.5 -26.5q-37 0 -63.5 26.5t-26.5 65.5z" />
<glyph unicode="&#xd7;" d="M143 383l215 215l-215 217l162 162l215 -217l219 219l162 -162l-219 -219l219 -217l-162 -162l-219 217l-215 -215z" />
<glyph unicode="&#xd8;" horiz-adv-x="1433" d="M27 0l178 203q-143 180 -144 411q0 272 191.5 464t464.5 192q176 0 334 -92l45 51h307l-176 -203q145 -182 145 -412q0 -272 -191.5 -463.5t-463.5 -191.5q-178 0 -336 92l-45 -51h-309zM330 614q0 -110 55 -200l485 555q-76 33 -153 32q-160 0 -273.5 -113.5 t-113.5 -273.5zM561 260q76 -33 156 -33q160 0 273.5 114t113.5 273q0 106 -60 203z" />
<glyph unicode="&#xd9;" horiz-adv-x="1046" d="M72 410v819h266v-772q0 -233 184 -234q186 0 187 234v772h266v-819q0 -209 -129 -330t-324 -121q-201 0 -325.5 122t-124.5 329zM334 1415h223l61 -162h-161z" />
<glyph unicode="&#xda;" horiz-adv-x="1046" d="M72 410v819h266v-772q0 -233 184 -234q186 0 187 234v772h266v-819q0 -209 -129 -330t-324 -121q-201 0 -325.5 122t-124.5 329zM432 1253l62 162h223l-123 -162h-162z" />
<glyph unicode="&#xdb;" horiz-adv-x="1046" d="M72 410v819h266v-772q0 -233 184 -234q186 0 187 234v772h266v-819q0 -209 -129 -330t-324 -121q-201 0 -325.5 122t-124.5 329zM287 1298l225 224h18l226 -224l-19 -24l-217 78l-223 -78z" />
<glyph unicode="&#xdc;" horiz-adv-x="1046" d="M72 410v819h266v-772q0 -233 184 -234q186 0 187 234v772h266v-819q0 -209 -129 -330t-324 -121q-201 0 -325.5 122t-124.5 329zM309 1378q0 39 26.5 64.5t63.5 25.5q39 0 66 -25.5t27 -64.5t-27 -65.5t-66 -26.5q-37 0 -63.5 26.5t-26.5 65.5zM553 1378q0 39 26.5 64.5 t63.5 25.5q39 0 65.5 -25.5t26.5 -64.5t-26.5 -65.5t-65.5 -26.5q-37 0 -63.5 26.5t-26.5 65.5z" />
<glyph unicode="&#xdd;" horiz-adv-x="1148" d="M31 1229h293l229 -348l262 348h303l-420 -561v-668h-266v616zM483 1253l62 162h223l-123 -162h-162z" />
<glyph unicode="&#xde;" horiz-adv-x="985" d="M72 0v1229h266v-176h203q170 0 276.5 -112t106.5 -271q0 -168 -111 -275.5t-272 -107.5h-203v-287h-266zM338 547h188q55 0 89 31.5t34 87.5q0 49 -37 83.5t-86 34.5h-188v-237z" />
<glyph unicode="&#xdf;" horiz-adv-x="1822" d="M66 348h260q0 -53 40 -91t93 -38q51 0 88 33t37 82q0 23 -6.5 42t-22.5 34.5t-28.5 27t-40 22.5t-42 16t-48.5 15.5t-44 14.5q-152 51 -219 141t-67 230q0 162 113.5 277.5t275 115.5t275.5 -114t114 -275h-260q0 53 -38 91t-91.5 38t-88 -34t-34.5 -89q0 -45 32.5 -78 t69.5 -47t103 -35q154 -45 230.5 -135t76.5 -240q0 -162 -114 -277.5t-275.5 -115.5t-275 113.5t-113.5 275.5zM977 348h260q0 -53 40 -91t93 -38q51 0 88 33t37 82q0 23 -6 42t-22.5 34.5t-29 27t-40 22.5t-42 16t-48 15.5t-43.5 14.5q-152 51 -219.5 141t-67.5 230 q0 162 113.5 277.5t275.5 115.5t275.5 -114t113.5 -275h-260q0 53 -38 91t-91 38t-88 -34t-35 -89q0 -45 33 -78t69.5 -47t102.5 -35q154 -45 230.5 -135t76.5 -240q0 -162 -113.5 -277.5t-275.5 -115.5t-275.5 113.5t-113.5 275.5z" />
<glyph unicode="&#xe0;" horiz-adv-x="1226" d="M31 0l565 1270h35l565 -1270h-287l-57 129h-479l-56 -129h-286zM379 1477h223l62 -162h-162zM469 354h285l-140 328h-4z" />
<glyph unicode="&#xe1;" horiz-adv-x="1226" d="M31 0l565 1270h35l565 -1270h-287l-57 129h-479l-56 -129h-286zM469 354h285l-140 328h-4zM565 1315l62 162h223l-123 -162h-162z" />
<glyph unicode="&#xe2;" horiz-adv-x="1226" d="M31 0l565 1270h35l565 -1270h-287l-57 129h-479l-56 -129h-286zM379 1296l225 224h19l225 -224l-19 -24l-217 78l-223 -78zM469 354h285l-140 328h-4z" />
<glyph unicode="&#xe3;" horiz-adv-x="1226" d="M31 0l565 1270h35l565 -1270h-287l-57 129h-479l-56 -129h-286zM387 1278q0 162 145 162h127q20 0 21 35h158q0 -168 -146 -168h-127q-20 0 -20 -29h-158zM469 354h285l-140 328h-4z" />
<glyph unicode="&#xe4;" horiz-adv-x="1226" d="M31 0l565 1270h35l565 -1270h-287l-57 129h-479l-56 -129h-286zM401 1378q0 39 27 64.5t64 25.5q39 0 65.5 -25.5t26.5 -64.5t-26.5 -65.5t-65.5 -26.5q-37 0 -64 26.5t-27 65.5zM469 354h285l-140 328h-4zM645 1378q0 39 26.5 64.5t63.5 25.5q39 0 65.5 -25.5 t26.5 -64.5t-26.5 -65.5t-65.5 -26.5q-37 0 -63.5 26.5t-26.5 65.5z" />
<glyph unicode="&#xe5;" horiz-adv-x="1226" d="M31 0l557 1251q-43 8 -72 43t-29 80q0 51 37 88t88.5 37t88 -37t36.5 -88q0 -45 -27.5 -78.5t-70.5 -44.5l557 -1251h-287l-57 129h-479l-56 -129h-286zM469 354h285l-140 328h-4zM545 1374.5q0 -67.5 67.5 -67.5t67.5 67.5t-67.5 67.5t-67.5 -67.5z" />
<glyph unicode="&#xe6;" horiz-adv-x="1673" d="M10 0l813 1229h799v-256h-492v-236h453v-256h-453v-225h512v-256h-778v254h-389l-158 -254h-307zM614 479h250v400z" />
<glyph unicode="&#xe7;" horiz-adv-x="1224" d="M61 608q0 297 206 479.5t464 182.5q281 0 473 -219l-174 -174q-131 135 -299 135q-164 0 -278.5 -113t-114.5 -276q0 -172 106.5 -289t286.5 -117q168 0 299 135l174 -174q-193 -219 -473 -219q-293 0 -481.5 179t-188.5 470zM639 -72q37 29 78 29q53 0 89 -36t36 -89 t-38 -89t-93 -36q-33 0 -66 19l27 47q25 -12 41 -13q33 0 54 19.5t21 52.5q0 72 -69 72q-29 0 -49 -17z" />
<glyph unicode="&#xe8;" horiz-adv-x="880" d="M72 0v1229h757v-256h-491v-236h453v-256h-453v-225h512v-256h-778zM252 1415h223l62 -162h-162z" />
<glyph unicode="&#xe9;" horiz-adv-x="880" d="M72 0v1229h757v-256h-491v-236h453v-256h-453v-225h512v-256h-778zM344 1253l62 162h223l-123 -162h-162z" />
<glyph unicode="&#xea;" horiz-adv-x="880" d="M72 0v1229h757v-256h-491v-236h453v-256h-453v-225h512v-256h-778zM231 1278l226 223h18l225 -223l-18 -25l-217 78l-223 -78z" />
<glyph unicode="&#xeb;" horiz-adv-x="880" d="M72 0v1229h757v-256h-491v-236h453v-256h-453v-225h512v-256h-778zM254 1378q0 39 26.5 64.5t63.5 25.5q39 0 65.5 -25.5t26.5 -64.5t-26.5 -65.5t-65.5 -26.5q-37 0 -63.5 26.5t-26.5 65.5zM498 1378q0 39 26.5 64.5t63.5 25.5q39 0 65.5 -25.5t26.5 -64.5t-26.5 -65.5 t-65.5 -26.5q-37 0 -63.5 26.5t-26.5 65.5z" />
<glyph unicode="&#xec;" horiz-adv-x="409" d="M4 1415h223l62 -162h-162zM72 0v1229h266v-1229h-266z" />
<glyph unicode="&#xed;" horiz-adv-x="409" d="M72 0v1229h266v-1229h-266zM123 1253l61 162h224l-123 -162h-162z" />
<glyph unicode="&#xee;" horiz-adv-x="409" d="M-29 1278l226 223h18l225 -223l-18 -25l-217 78l-223 -78zM72 0v1229h266v-1229h-266z" />
<glyph unicode="&#xef;" horiz-adv-x="409" d="M-8 1378q0 39 26.5 64.5t63.5 25.5q39 0 65.5 -25.5t26.5 -64.5t-26.5 -65.5t-65.5 -26.5q-37 0 -63.5 26.5t-26.5 65.5zM72 0v1229h266v-1229h-266zM236 1378q0 39 26.5 64.5t63.5 25.5q39 0 65.5 -25.5t26.5 -64.5t-26.5 -65.5t-65.5 -26.5q-37 0 -63.5 26.5 t-26.5 65.5z" />
<glyph unicode="&#xf0;" horiz-adv-x="1150" d="M6 485v246h66v498h397q256 0 438.5 -178.5t182.5 -436.5q0 -252 -175.5 -433t-445.5 -181h-397v485h-66zM338 262h125q147 0 248.5 98.5t101.5 253.5q0 150 -98.5 251.5t-251.5 101.5h-125v-236h237v-246h-237v-223z" />
<glyph unicode="&#xf1;" horiz-adv-x="1167" d="M72 0v1229h266l487 -742h4v742h267v-1229h-267l-487 741h-4v-741h-266zM393 1278q0 162 146 162h127q20 0 20 35h158q0 -168 -146 -168h-127q-20 0 -20 -29h-158z" />
<glyph unicode="&#xf2;" horiz-adv-x="1433" d="M61 614.5q0 272.5 191.5 464t464 191.5t464 -191.5t191.5 -464t-191.5 -464t-464 -191.5t-464 191.5t-191.5 464zM330 614.5q0 -159.5 113.5 -273.5t273.5 -114t273.5 114t113.5 273.5t-113.5 273t-273.5 113.5t-273.5 -113.5t-113.5 -273zM512 1477h223l62 -162h-162z " />
<glyph unicode="&#xf3;" horiz-adv-x="1433" d="M61 614.5q0 272.5 191.5 464t464 191.5t464 -191.5t191.5 -464t-191.5 -464t-464 -191.5t-464 191.5t-191.5 464zM330 614.5q0 -159.5 113.5 -273.5t273.5 -114t273.5 114t113.5 273.5t-113.5 273t-273.5 113.5t-273.5 -113.5t-113.5 -273zM645 1315l62 162h223 l-123 -162h-162z" />
<glyph unicode="&#xf4;" horiz-adv-x="1433" d="M61 614.5q0 272.5 191.5 464t464 191.5t464 -191.5t191.5 -464t-191.5 -464t-464 -191.5t-464 191.5t-191.5 464zM330 614.5q0 -159.5 113.5 -273.5t273.5 -114t273.5 114t113.5 273.5t-113.5 273t-273.5 113.5t-273.5 -113.5t-113.5 -273zM477 1319l225 223h19l225 -223 l-18 -25l-217 78l-224 -78z" />
<glyph unicode="&#xf5;" horiz-adv-x="1433" d="M61 614.5q0 272.5 191.5 464t464 191.5t464 -191.5t191.5 -464t-191.5 -464t-464 -191.5t-464 191.5t-191.5 464zM330 614.5q0 -159.5 113.5 -273.5t273.5 -114t273.5 114t113.5 273.5t-113.5 273t-273.5 113.5t-273.5 -113.5t-113.5 -273zM469 1298q0 162 145 162h127 q20 0 21 35h158q0 -168 -146 -168h-127q-20 0 -20 -29h-158z" />
<glyph unicode="&#xf6;" horiz-adv-x="1433" d="M61 614.5q0 272.5 191.5 464t464 191.5t464 -191.5t191.5 -464t-191.5 -464t-464 -191.5t-464 191.5t-191.5 464zM330 614.5q0 -159.5 113.5 -273.5t273.5 -114t273.5 114t113.5 273.5t-113.5 273t-273.5 113.5t-273.5 -113.5t-113.5 -273zM504 1440q0 39 26.5 64.5 t63.5 25.5q39 0 65.5 -25.5t26.5 -64.5t-26.5 -65.5t-65.5 -26.5q-37 0 -63.5 26.5t-26.5 65.5zM748 1440q0 39 26.5 64.5t63.5 25.5q39 0 65.5 -25.5t26.5 -64.5t-26.5 -65.5t-65.5 -26.5q-37 0 -63.5 26.5t-26.5 65.5z" />
<glyph unicode="&#xf7;" d="M123 477v246h801v-246h-801zM389 276.5q0 55.5 39 94.5t94.5 39t94 -39t38.5 -94.5t-38.5 -94.5t-94 -39t-94.5 39t-39 94.5zM389 909.5q0 55.5 39 94t94.5 38.5t94 -38.5t38.5 -94t-38.5 -94.5t-94 -39t-94.5 39t-39 94.5z" />
<glyph unicode="&#xf8;" horiz-adv-x="1433" d="M27 0l178 203q-143 180 -144 411q0 272 191.5 464t464.5 192q176 0 334 -92l45 51h307l-176 -203q145 -182 145 -412q0 -272 -191.5 -463.5t-463.5 -191.5q-178 0 -336 92l-45 -51h-309zM330 614q0 -110 55 -200l485 555q-76 33 -153 32q-160 0 -273.5 -113.5 t-113.5 -273.5zM561 260q76 -33 156 -33q160 0 273.5 114t113.5 273q0 106 -60 203z" />
<glyph unicode="&#xf9;" horiz-adv-x="1046" d="M72 410v819h266v-772q0 -233 184 -234q186 0 187 234v772h266v-819q0 -209 -129 -330t-324 -121q-201 0 -325.5 122t-124.5 329zM334 1415h223l61 -162h-161z" />
<glyph unicode="&#xfa;" horiz-adv-x="1046" d="M72 410v819h266v-772q0 -233 184 -234q186 0 187 234v772h266v-819q0 -209 -129 -330t-324 -121q-201 0 -325.5 122t-124.5 329zM432 1253l62 162h223l-123 -162h-162z" />
<glyph unicode="&#xfb;" horiz-adv-x="1046" d="M72 410v819h266v-772q0 -233 184 -234q186 0 187 234v772h266v-819q0 -209 -129 -330t-324 -121q-201 0 -325.5 122t-124.5 329zM287 1298l225 224h18l226 -224l-19 -24l-217 78l-223 -78z" />
<glyph unicode="&#xfc;" horiz-adv-x="1046" d="M72 410v819h266v-772q0 -233 184 -234q186 0 187 234v772h266v-819q0 -209 -129 -330t-324 -121q-201 0 -325.5 122t-124.5 329zM309 1378q0 39 26.5 64.5t63.5 25.5q39 0 66 -25.5t27 -64.5t-27 -65.5t-66 -26.5q-37 0 -63.5 26.5t-26.5 65.5zM553 1378q0 39 26.5 64.5 t63.5 25.5q39 0 65.5 -25.5t26.5 -64.5t-26.5 -65.5t-65.5 -26.5q-37 0 -63.5 26.5t-26.5 65.5z" />
<glyph unicode="&#xfd;" horiz-adv-x="1148" d="M31 1229h293l229 -348l262 348h303l-420 -561v-668h-266v616zM483 1253l62 162h223l-123 -162h-162z" />
<glyph unicode="&#xfe;" horiz-adv-x="985" d="M72 0v1229h266v-176h203q170 0 276.5 -112t106.5 -271q0 -168 -111 -275.5t-272 -107.5h-203v-287h-266zM338 547h188q55 0 89 31.5t34 87.5q0 49 -37 83.5t-86 34.5h-188v-237z" />
<glyph unicode="&#xff;" horiz-adv-x="1148" d="M31 1229h293l229 -348l262 348h303l-420 -561v-668h-266v616zM381 1378q0 39 26.5 64.5t63.5 25.5q39 0 65.5 -25.5t26.5 -64.5t-26.5 -65.5t-65.5 -26.5q-37 0 -63.5 26.5t-26.5 65.5zM625 1378q0 39 26.5 64.5t63.5 25.5q39 0 65.5 -25.5t26.5 -64.5t-26.5 -65.5 t-65.5 -26.5q-37 0 -63.5 26.5t-26.5 65.5z" />
<glyph unicode="&#x152;" horiz-adv-x="1632" d="M72 614q0 252 175 433.5t445 181.5h889v-256h-491v-236h452v-256h-452v-225h512v-256h-910q-256 0 -438 178t-182 436zM348 614q0 -150 98.5 -251t251.5 -101h125v705h-125q-147 0 -248.5 -98.5t-101.5 -254.5z" />
<glyph unicode="&#x153;" horiz-adv-x="1632" d="M72 614q0 252 175 433.5t445 181.5h889v-256h-491v-236h452v-256h-452v-225h512v-256h-910q-256 0 -438 178t-182 436zM348 614q0 -150 98.5 -251t251.5 -101h125v705h-125q-147 0 -248.5 -98.5t-101.5 -254.5z" />
<glyph unicode="&#x178;" horiz-adv-x="1148" d="M31 1229h293l229 -348l262 348h303l-420 -561v-668h-266v616zM381 1378q0 39 26.5 64.5t63.5 25.5q39 0 65.5 -25.5t26.5 -64.5t-26.5 -65.5t-65.5 -26.5q-37 0 -63.5 26.5t-26.5 65.5zM625 1378q0 39 26.5 64.5t63.5 25.5q39 0 65.5 -25.5t26.5 -64.5t-26.5 -65.5 t-65.5 -26.5q-37 0 -63.5 26.5t-26.5 65.5z" />
<glyph unicode="&#x2c6;" d="M287 1257l225 224h18l226 -224l-19 -24l-217 78l-223 -78z" />
<glyph unicode="&#x2dc;" d="M297 1278q0 162 145 162h127q20 0 21 35h158q0 -168 -146 -168h-127q-20 0 -20 -29h-158z" />
<glyph unicode="&#x2000;" horiz-adv-x="771" />
<glyph unicode="&#x2001;" horiz-adv-x="1542" />
<glyph unicode="&#x2002;" horiz-adv-x="771" />
<glyph unicode="&#x2003;" horiz-adv-x="1542" />
<glyph unicode="&#x2004;" horiz-adv-x="514" />
<glyph unicode="&#x2005;" horiz-adv-x="385" />
<glyph unicode="&#x2006;" horiz-adv-x="257" />
<glyph unicode="&#x2007;" horiz-adv-x="257" />
<glyph unicode="&#x2008;" horiz-adv-x="192" />
<glyph unicode="&#x2009;" horiz-adv-x="308" />
<glyph unicode="&#x200a;" horiz-adv-x="85" />
<glyph unicode="&#x2010;" horiz-adv-x="696" d="M72 485v246h553v-246h-553z" />
<glyph unicode="&#x2011;" horiz-adv-x="696" d="M72 485v246h553v-246h-553z" />
<glyph unicode="&#x2012;" horiz-adv-x="696" d="M72 485v246h553v-246h-553z" />
<glyph unicode="&#x2013;" d="M72 502v194h901v-194h-901z" />
<glyph unicode="&#x2014;" horiz-adv-x="2048" d="M72 502v194h1904v-194h-1904z" />
<glyph unicode="&#x2018;" horiz-adv-x="385" d="M8 739l338 510h8l-88 -510h-258z" />
<glyph unicode="&#x2019;" horiz-adv-x="385" d="M31 719l88 510h258l-338 -510h-8z" />
<glyph unicode="&#x201a;" horiz-adv-x="385" d="M31 -270l88 510h258l-338 -510h-8z" />
<glyph unicode="&#x201c;" horiz-adv-x="745" d="M8 739l338 510h8l-88 -510h-258zM369 739l338 510h8l-88 -510h-258z" />
<glyph unicode="&#x201d;" horiz-adv-x="745" d="M31 719l88 510h258l-338 -510h-8zM391 719l88 510h258l-338 -510h-8z" />
<glyph unicode="&#x201e;" horiz-adv-x="745" d="M31 -270l88 510h258l-338 -510h-8zM391 -270l88 510h258l-338 -510h-8z" />
<glyph unicode="&#x2022;" horiz-adv-x="724" d="M82 614.5q0 118.5 81 199.5t199.5 81t199.5 -81t81 -199.5t-81 -199.5t-199.5 -81t-199.5 81t-81 199.5z" />
<glyph unicode="&#x2026;" horiz-adv-x="1228" d="M72 104.5q0 55.5 39 94.5t94 39t94 -39t39 -94.5t-39 -94.5t-94 -39t-94 39t-39 94.5zM487 104.5q0 55.5 39 94.5t94.5 39t94.5 -39t39 -94.5t-39 -94.5t-94.5 -39t-94.5 39t-39 94.5zM891 104.5q0 55.5 39 94.5t94 39t94 -39t39 -94.5t-39 -94.5t-94 -39t-94 39 t-39 94.5z" />
<glyph unicode="&#x202f;" horiz-adv-x="308" />
<glyph unicode="&#x2039;" horiz-adv-x="555" d="M68 606v19l370 372l25 -18l-139 -365l139 -370l-25 -11z" />
<glyph unicode="&#x203a;" horiz-adv-x="555" d="M92 244l139 370l-139 365l25 18l370 -372v-19l-370 -373z" />
<glyph unicode="&#x205f;" horiz-adv-x="385" />
<glyph unicode="&#x20ac;" horiz-adv-x="1208" d="M68 377v205h127v86h-127v204h141q43 174 187.5 286t330.5 112q281 0 473 -219l-174 -174q-131 135 -299 135q-78 0 -140.5 -38t-97.5 -102h394v-204h-422v-86h422v-205h-402q29 -74 95.5 -117t150.5 -43q168 0 299 135l174 -174q-193 -219 -473 -219q-193 0 -338 118 t-184 300h-137z" />
<glyph unicode="&#x2122;" horiz-adv-x="1040" d="M41 1114v115h389v-115h-129v-377h-131v377h-129zM483 737v492h133l127 -246l129 246h127v-492h-129v197l-112 -211h-31l-111 211v-197h-133z" />
<glyph unicode="&#x25fc;" horiz-adv-x="1230" d="M0 0v1230h1230v-1230h-1230z" />
</font>
</defs>
</svg>
